<?xml version="1.0" standalone="no"?>
<!DOCTYPE svg PUBLIC "-//W3C//DTD SVG 20010904//EN"
 "http://www.w3.org/TR/2001/REC-SVG-20010904/DTD/svg10.dtd">
<svg version="1.0" xmlns="http://www.w3.org/2000/svg"
 width="160.000000pt" height="160.000000pt" viewBox="0 0 160.000000 160.000000"
 preserveAspectRatio="xMidYMid meet">
<metadata>
Created by potrace 1.11, written by Peter Selinger 2001-2013
</metadata>
<g transform="translate(0.000000,160.000000) scale(0.100000,-0.100000)"
fill="#000000" stroke="none">
<path d="M196 1233 c-3 -4 4 -11 17 -17 12 -7 23 -17 23 -24 1 -7 2 -13 4 -14
1 -2 3 -11 5 -20 5 -28 -8 -21 -33 17 -17 27 -29 35 -53 35 -18 0 -28 -4 -24
-10 4 -6 10 -8 15 -5 13 8 22 -13 27 -59 2 -23 9 -51 15 -63 9 -18 5 -30 -28
-75 -21 -29 -53 -71 -71 -92 -42 -50 -42 -77 0 -123 l34 -36 46 16 c25 8 48
13 50 10 3 -2 36 -4 75 -4 59 0 72 -3 89 -22 18 -19 45 -63 48 -77 1 -3 7 -18
13 -33 7 -16 12 -32 12 -37 0 -5 7 -31 16 -57 16 -47 87 -133 110 -133 12 0
34 -72 34 -114 0 -29 -33 -111 -49 -121 -9 -5 -41 -68 -41 -80 0 -2 20 -3 44
-3 31 0 50 6 63 19 10 11 27 28 38 39 15 16 20 37 22 101 1 44 7 88 12 98 6
10 9 20 8 22 -1 2 10 -9 25 -26 48 -52 49 -102 4 -173 -14 -23 -26 -46 -26
-51 0 -13 20 -19 55 -16 17 2 38 3 47 4 10 1 20 12 24 29 4 15 16 38 26 52 18
25 18 27 -11 110 -16 47 -32 100 -36 117 -8 38 -16 36 141 33 99 -1 213 18
242 42 19 16 81 -124 75 -169 -6 -40 -40 -123 -52 -123 -4 0 -15 -19 -25 -41
-15 -34 -16 -43 -5 -50 21 -14 83 -3 94 17 6 9 17 25 26 34 9 10 20 39 24 65
4 27 15 69 24 93 19 47 20 47 48 -6 15 -28 9 -129 -10 -151 -7 -9 -18 -28 -25
-43 -11 -27 -10 -28 16 -29 60 -3 95 11 90 35 -1 6 6 23 16 38 10 15 15 35 12
45 -3 10 -8 43 -11 73 l-6 55 21 -30 c11 -16 23 -45 26 -63 5 -28 9 -32 20
-20 24 24 23 82 -3 154 -26 74 -31 168 -20 389 8 159 -21 262 -81 287 -17 7
-128 12 -302 13 -151 2 -288 6 -305 9 -16 4 -56 13 -88 21 -78 20 -112 19
-188 -6 -93 -30 -126 -27 -181 14 -18 13 -46 27 -61 31 -19 5 -33 17 -42 40
-8 18 -20 38 -27 44 -16 13 -64 23 -72 15z m1314 -640 c-1 -47 -6 -88 -14
-103 l-14 -25 -7 38 c-4 21 -2 61 4 90 7 29 12 58 13 65 1 6 5 12 10 12 4 0 8
-35 8 -77z"/>
</g>
</svg>
